HIERARCHY
ROOT Hips
{
  OFFSET 90.7885 88.945 -76.2838
  CHANNELS 6 Xposition Yposition Zposition Zrotation Xrotation Yrotation
  JOINT LeftUpLeg
  {
    OFFSET 8.64259 1.95398 -2.38835
    CHANNELS 3 Zrotation Xrotation Yrotation
    JOINT LeftLeg
    {
      OFFSET 43.7702 0 0
      CHANNELS 3 Zrotation Xrotation Yrotation
      JOINT LeftFoot
      {
        OFFSET 40.6238 0 0
        CHANNELS 3 Zrotation Xrotation Yrotation
        JOINT LeftToeBase
        {
          OFFSET 12.7242 0 0
          CHANNELS 3 Zrotation Xrotation Yrotation
          End Site
          {
            OFFSET 0 0 0
          }
        }
      }
    }
  }
  JOINT RightUpLeg
  {
    OFFSET -8.2249 1.95398 -2.59336
    CHANNELS 3 Zrotation Xrotation Yrotation
    JOINT RightLeg
    {
      OFFSET 43.5653 0 0
      CHANNELS 3 Zrotation Xrotation Yrotation
      JOINT RightFoot
      {
        OFFSET 40.6238 0 0
        CHANNELS 3 Zrotation Xrotation Yrotation
        JOINT RightToeBase
        {
          OFFSET 12.7242 0 0
          CHANNELS 3 Zrotation Xrotation Yrotation
          End Site
          {
            OFFSET 0 0 0
          }
        }
      }
    }
  }
  JOINT Spine
  {
    OFFSET 0.165834 0.87714 6.61349
    CHANNELS 3 Zrotation Xrotation Yrotation
    JOINT Spine1
    {
      OFFSET 7.38963 1.71661e-005 0
      CHANNELS 3 Zrotation Xrotation Yrotation
      JOINT Spine2
      {
        OFFSET 11.9445 1.14441e-005 0
        CHANNELS 3 Zrotation Xrotation Yrotation
        JOINT Spine3
        {
          OFFSET 14.7254 4.19617e-005 0
          CHANNELS 3 Zrotation Xrotation Yrotation
          JOINT Spine4
          {
            OFFSET 10.9679 0 0
            CHANNELS 3 Zrotation Xrotation Yrotation
            JOINT RightShoulder
            {
              OFFSET 2.46616 -1.6653 3.69651
              CHANNELS 3 Zrotation Xrotation Yrotation
              JOINT RightArm
              {
                OFFSET 13.0012 0 0
                CHANNELS 3 Zrotation Xrotation Yrotation
                JOINT RightForeArm
                {
                  OFFSET 28.7848 1.52588e-005 0
                  CHANNELS 3 Zrotation Xrotation Yrotation
                  JOINT RightHand
                  {
                    OFFSET 26.5688 1.52588e-005 0
                    CHANNELS 3 Zrotation Xrotation Yrotation
                    End Site
                    {
                      OFFSET 0 0 0
                    }
                  }
                }
              }
            }
            JOINT LeftShoulder
            {
              OFFSET 2.38034 -1.29275 -3.7523
              CHANNELS 3 Zrotation Xrotation Yrotation
              JOINT LeftArm
              {
                OFFSET 16.3182 6.10352e-005 0
                CHANNELS 3 Zrotation Xrotation Yrotation
                JOINT LeftForeArm
                {
                  OFFSET 27.0901 0 0
                  CHANNELS 3 Zrotation Xrotation Yrotation
                  JOINT LeftHand
                  {
                    OFFSET 24.5451 1.52588e-005 0
                    CHANNELS 3 Zrotation Xrotation Yrotation
                    End Site
                    {
                      OFFSET 0 0 0
                    }
                  }
                }
              }
            }
            JOINT Neck
            {
              OFFSET 5.0226 -0.0266342 0
              CHANNELS 3 Zrotation Xrotation Yrotation
              JOINT Head
              {
                OFFSET 6.69363 2.86102e-005 0
                CHANNELS 3 Zrotation Xrotation Yrotation
                End Site
                {
                  OFFSET 0 0 0
                }
              }
            }
          }
        }
      }
    }
  }
}
MOTION
Frames:	7
Frame Time:	0.0416667
36.1791 8.78526 40.1369 3.78245 -10.4768 -0.805155 -175.346 -2.12124 93.4877 -31.3345 38.2132 3.75029 91.9223 15.8008 3.02082 9.46857 14.4802 -12.0673 171.049 -14.5203 86.7318 -9.69937 -23.488 -3.42826 97.2486 -17.8681 1.68667 29.7269 -1.44433 3.256 0.0435736 6.35092 -89.9778 14.172 0.0972957 0.0312411 2.50108 0.0985783 0.0269077 -20.0341 0.0834048 0.0590446 -0.0214338 0.0834112 0.0590203 95.8228 -14.9999 -99.1497 20.4973 -9.0504 18.0333 12.9711 1.33261 -115.985 101.276 -15.5138 -19.5978 -86.1403 -35.8889 82.043 3.04385 12.3372 11.7921 88.5551 -31.2469 -97.4407 -68.7734 36.1905 -57.5375 41.3186 -2.56589 -4.63263 -7.19064 -0.267111 3.80081 
36.1191 8.86829 40.1404 3.71511 -10.5263 -0.884995 -175.427 -1.94616 93.369 -31.4019 37.5308 3.75547 91.049 15.1575 2.38629 14.1521 13.4414 -12.7384 171.082 -14.5179 86.7492 -9.74599 -23.9294 -3.48339 97.0341 -18.0557 0.940257 30.1739 -1.63426 3.64762 0.0886159 6.30536 -90.0003 14.2631 0.17545 -0.0249337 2.59219 0.174175 -0.0326472 -19.9431 0.174827 0.0289415 0.0695837 0.174831 0.0289447 95.941 -14.2965 -99.0873 21.0077 -8.95295 18.5245 15.6394 -0.77519 -114.301 111.047 -11.7083 -14.8259 -86.7309 -37.1228 81.2566 4.23096 12.7859 11.9843 88.5123 -30.9284 -97.3019 -68.8938 36.3327 -57.6116 39.1644 -2.38855 -3.21498 -5.07107 -0.772541 2.44112 
36.1336 8.85103 40.1254 3.79415 -10.4963 -0.914926 -175.449 -1.91643 93.331 -31.401 37.549 3.75211 91.3055 15.2315 2.22029 14.4689 12.9565 -12.3269 171.03 -14.5466 86.7162 -9.74052 -23.9373 -3.46883 97.0326 -18.1625 0.671261 31.0519 -2.03461 4.51319 0.0752151 6.29546 -89.999 14.283 0.149559 -0.0187387 2.61203 0.148588 -0.0253031 -19.9232 0.148274 0.0270738 0.0894756 0.148273 0.0270757 95.3623 -14.6651 -100.493 20.5244 -7.74505 19.7335 16.6848 -1.49829 -114.397 111.162 -11.039 -14.4233 -86.8633 -37.3385 81.0696 4.53577 12.654 12.2545 88.4221 -30.8804 -97.6618 -68.9226 37.3768 -59.0059 38.9496 -2.24966 -3.09458 -5.06637 -0.698172 2.13404 
36.1664 8.83857 40.1295 3.89061 -10.4625 -0.886607 -175.53 -1.84945 93.2701 -31.5468 37.6344 3.90229 91.4235 15.2956 2.2346 15.6957 12.1184 -11.8515 171.011 -14.6016 86.7219 -9.7189 -23.6716 -3.45513 97.102 -18.1868 0.729834 32.2793 -2.57337 5.73558 0.0548683 6.3287 -89.9986 14.2165 0.109422 -0.0122782 2.54554 0.108783 -0.0170867 -19.9897 0.108053 0.0211843 0.0229933 0.108053 0.0211731 95.5462 -14.5842 -100.035 20.7218 -8.13652 19.2036 14.1338 -1.5781 -114.661 109.3 -13.7212 -16.519 -86.5828 -36.6219 81.4104 3.77652 12.2099 11.9714 88.733 -31.0224 -97.6996 -68.7534 37.6681 -59.5659 39.6392 -2.30392 -3.4179 -5.13447 -0.586823 2.62741 
36.1479 8.85728 40.12 3.83965 -10.4118 -0.922104 -175.573 -1.83001 93.2335 -31.4821 37.2715 3.87837 91.5717 15.262 1.95556 17.5577 10.8413 -11.0673 171.068 -14.6187 86.7655 -9.73496 -23.631 -3.5073 97.0268 -18.3221 0.333266 33.9976 -3.23342 7.3376 0.0690651 6.26247 -90.0086 14.349 0.132652 -0.0357934 2.67804 0.130951 -0.0416034 -19.8572 0.137269 0.00574225 0.155494 0.13728 0.00571739 95.1493 -14.2821 -101.212 21.4755 -7.75094 20.5798 18.2759 -1.70359 -114.396 110.979 -9.14099 -13.2352 -87.2298 -37.5605 80.4795 4.54804 12.6794 12.7788 88.7812 -30.6951 -96.7224 -74.4906 35.0973 -51.416 38.1861 -2.15612 -2.97613 -4.46146 -0.679589 2.24777 
36.1266 8.85044 40.1035 3.71849 -10.4108 -0.984094 -175.471 -1.8063 93.2598 -31.4958 37.798 3.75027 91.2671 15.36 2.62195 21.0208 9.43487 -10.6154 171.095 -14.7059 86.7959 -9.7885 -24.0527 -3.58814 96.8383 -18.643 -0.71941 36.0718 -3.91677 9.15692 0.0748357 6.27635 -90.0058 14.3212 0.145437 -0.032012 2.65022 0.143892 -0.0383891 -19.885 0.148331 0.0131713 0.127661 0.148331 0.0131812 95.2584 -15.5224 -100.436 18.8809 -8.10024 19.8318 14.9159 -1.44812 -114.464 109.897 -13.171 -16.057 -87.0827 -37.5136 80.7246 4.22306 12.4439 12.7402 89.5425 -31.4344 -96.4917 -70.6445 34.661 -53.8394 38.747 -1.85824 -2.22302 -4.83603 -0.729899 1.5066 
36.1068 8.86649 40.0877 3.85717 -10.4031 -0.976181 -175.481 -1.70304 93.2693 -31.6568 37.8487 3.7997 91.225 15.357 2.6812 24.529 7.75302 -9.6954 171.149 -14.8259 86.9042 -9.78521 -23.856 -3.61517 96.7393 -18.8434 -1.28197 38.1886 -4.52835 10.9857 0.0575562 6.27545 -90.0163 14.323 0.10608 -0.0474325 2.65208 0.103877 -0.0520736 -19.8831 0.115426 -0.0133658 0.129525 0.115425 -0.0133769 95.3106 -15.7342 -100.22 18.0061 -8.08479 19.615 16.5097 -1.84678 -114.333 110.591 -11.8815 -15.1361 -87.0915 -37.7968 80.7706 4.57442 12.3645 12.7837 88.3723 -31.0888 -97.4083 -71.2182 36.2852 -55.5725 38.8967 -1.61707 -1.68561 -5.058 -0.747197 1.09774 
